<svg xmlns="http://www.w3.org/2000/svg" version="1.1" xmlns:xlink="http://www.w3.org/1999/xlink" xmlns:svgjs="http://svgjs.com/svgjs" width="256" height="256"><svg width="256" height="256" viewBox="0 0 256 256" fill="none" xmlns="http://www.w3.org/2000/svg">
<rect width="256" height="256" rx="8" fill="black"></rect>
<path d="M72.3711 115.5C72.2025 113.393 71.4124 111.75 70.0007 110.57C68.61 109.39 66.4925 108.8 63.648 108.8C61.836 108.8 60.3506 109.021 59.1917 109.463C58.0539 109.885 57.2111 110.464 56.6633 111.202C56.1155 111.939 55.831 112.782 55.81 113.73C55.7678 114.51 55.9048 115.216 56.2208 115.848C56.558 116.459 57.0847 117.017 57.8011 117.523C58.5175 118.007 59.434 118.45 60.5507 118.85C61.6675 119.25 62.9949 119.609 64.533 119.925L69.8426 121.062C73.4246 121.821 76.4902 122.822 79.0397 124.065C81.5892 125.308 83.6751 126.772 85.2975 128.458C86.9199 130.123 88.1104 131.998 88.8689 134.084C89.6485 136.17 90.0488 138.445 90.0699 140.911C90.0488 145.167 88.9848 148.77 86.8778 151.719C84.7708 154.669 81.7578 156.913 77.8387 158.451C73.9408 159.989 69.2527 160.759 63.7745 160.759C58.1487 160.759 53.2394 159.926 49.0465 158.262C44.8746 156.597 41.6298 154.037 39.3121 150.582C37.0155 147.105 35.8566 142.659 35.8355 137.244H52.523C52.6284 139.225 53.1235 140.889 54.0085 142.238C54.8934 143.586 56.1366 144.608 57.7379 145.304C59.3603 145.999 61.2882 146.347 63.5216 146.347C65.3969 146.347 66.9666 146.115 68.2308 145.651C69.495 145.188 70.4537 144.545 71.1068 143.723C71.76 142.902 72.0971 141.964 72.1182 140.911C72.0971 139.92 71.7706 139.056 71.1385 138.319C70.5274 137.56 69.5161 136.886 68.1044 136.296C66.6927 135.685 64.7858 135.116 62.3838 134.589L55.9364 133.199C50.2053 131.956 45.6858 129.88 42.3778 126.973C39.0909 124.044 37.4579 120.051 37.479 114.994C37.4579 110.886 38.5536 107.293 40.7659 104.217C42.9994 101.12 46.0861 98.7071 50.0262 96.9794C53.9874 95.2517 58.528 94.3878 63.648 94.3878C68.8734 94.3878 73.3929 95.2622 77.2066 97.011C81.0203 98.7598 83.9596 101.225 86.0245 104.407C88.1104 107.567 89.1639 111.265 89.185 115.5H72.3711ZM159.459 127.636C159.459 134.842 158.058 140.921 155.255 145.873C152.453 150.803 148.671 154.543 143.909 157.092C139.147 159.621 133.838 160.885 127.98 160.885C122.081 160.885 116.75 159.61 111.988 157.061C107.247 154.49 103.476 150.74 100.673 145.809C97.8922 140.858 96.5016 134.8 96.5016 127.636C96.5016 120.43 97.8922 114.362 100.673 109.432C103.476 104.48 107.247 100.74 111.988 98.212C116.75 95.6625 122.081 94.3878 127.98 94.3878C133.838 94.3878 139.147 95.6625 143.909 98.212C148.671 100.74 152.453 104.48 155.255 109.432C158.058 114.362 159.459 120.43 159.459 127.636ZM141.381 127.636C141.381 123.759 140.865 120.494 139.832 117.839C138.821 115.163 137.314 113.14 135.313 111.771C133.332 110.38 130.888 109.685 127.98 109.685C125.073 109.685 122.618 110.38 120.616 111.771C118.636 113.14 117.129 115.163 116.097 117.839C115.085 120.494 114.58 123.759 114.58 127.636C114.58 131.513 115.085 134.79 116.097 137.466C117.129 140.12 118.636 142.143 120.616 143.534C122.618 144.903 125.073 145.588 127.98 145.588C130.888 145.588 133.332 144.903 135.313 143.534C137.314 142.143 138.821 140.12 139.832 137.466C140.865 134.79 141.381 131.513 141.381 127.636ZM202.481 115.5C202.313 113.393 201.523 111.75 200.111 110.57C198.72 109.39 196.603 108.8 193.758 108.8C191.946 108.8 190.461 109.021 189.302 109.463C188.164 109.885 187.321 110.464 186.774 111.202C186.226 111.939 185.941 112.782 185.92 113.73C185.878 114.51 186.015 115.216 186.331 115.848C186.668 116.459 187.195 117.017 187.911 117.523C188.628 118.007 189.544 118.45 190.661 118.85C191.778 119.25 193.105 119.609 194.643 119.925L199.953 121.062C203.535 121.821 206.601 122.822 209.15 124.065C211.7 125.308 213.785 126.772 215.408 128.458C217.03 130.123 218.221 131.998 218.979 134.084C219.759 136.17 220.159 138.445 220.18 140.911C220.159 145.167 219.095 148.77 216.988 151.719C214.881 154.669 211.868 156.913 207.949 158.451C204.051 159.989 199.363 160.759 193.885 160.759C188.259 160.759 183.35 159.926 179.157 158.262C174.985 156.597 171.74 154.037 169.422 150.582C167.126 147.105 165.967 142.659 165.946 137.244H182.633C182.739 139.225 183.234 140.889 184.119 142.238C185.004 143.586 186.247 144.608 187.848 145.304C189.471 145.999 191.399 146.347 193.632 146.347C195.507 146.347 197.077 146.115 198.341 145.651C199.605 145.188 200.564 144.545 201.217 143.723C201.87 142.902 202.207 141.964 202.229 140.911C202.207 139.92 201.881 139.056 201.249 138.319C200.638 137.56 199.626 136.886 198.215 136.296C196.803 135.685 194.896 135.116 192.494 134.589L186.047 133.199C180.316 131.956 175.796 129.88 172.488 126.973C169.201 124.044 167.568 120.051 167.589 114.994C167.568 110.886 168.664 107.293 170.876 104.217C173.11 101.12 176.196 98.7071 180.137 96.9794C184.098 95.2517 188.638 94.3878 193.758 94.3878C198.984 94.3878 203.503 95.2622 207.317 97.011C211.131 98.7598 214.07 101.225 216.135 104.407C218.221 107.567 219.274 111.265 219.295 115.5H202.481Z" fill="#A29BFE"></path>
</svg><style>@media (prefers-color-scheme: light) { :root { filter: none; } }
</style></svg>